<?xml version="1.0" standalone="no"?>
<!DOCTYPE svg PUBLIC "-//W3C//DTD SVG 20010904//EN"
 "http://www.w3.org/TR/2001/REC-SVG-20010904/DTD/svg10.dtd">
<svg version="1.0" xmlns="http://www.w3.org/2000/svg"
 width="310.000000pt" height="310.000000pt" viewBox="0 0 310.000000 310.000000"
 preserveAspectRatio="xMidYMid meet">
<metadata>
Created by potrace 1.14, written by Peter Selinger 2001-2017
</metadata>
<g transform="translate(0.000000,310.000000) scale(0.100000,-0.100000)"
fill="#000000" stroke="none">
<path d="M1487 2708 c-32 -30 -47 -63 -146 -338 -137 -381 -243 -671 -331
-910 -37 -102 -71 -195 -74 -207 l-7 -22 502 0 c276 0 505 -3 509 -8 3 -4 39
-98 79 -208 40 -110 76 -209 82 -220 5 -11 11 -29 14 -40 2 -11 16 -51 30 -90
15 -38 41 -111 59 -160 40 -109 51 -128 89 -150 65 -39 143 -14 180 56 22 42
19 68 -26 189 -19 52 -103 284 -187 515 -83 231 -155 429 -160 440 -5 11 -48
128 -96 260 -47 132 -100 276 -116 320 -16 44 -36 100 -44 125 -8 25 -19 54
-24 65 -5 11 -28 72 -50 135 -22 63 -44 124 -49 135 -5 11 -17 39 -26 63 -23
53 -67 82 -127 82 -36 0 -51 -6 -81 -32z m353 -1208 c0 -4 -121 -7 -269 -7
l-269 0 23 66 c13 36 69 192 125 346 56 154 107 293 112 308 10 26 23 -5 144
-339 74 -202 134 -371 134 -374z"/>
<path d="M886 1082 c-3 -5 -49 -128 -102 -273 -69 -189 -96 -275 -95 -303 5
-101 119 -156 201 -98 37 27 43 40 170 397 10 28 36 100 58 162 22 61 38 114
35 117 -10 9 -261 7 -267 -2z"/>
</g>
</svg>
